<svg xmlns="http://www.w3.org/2000/svg" width="40" height="64" viewBox="0 0 40 64"><g fill="none"><path fill="#FF6465" d="M19.9999382,0 C31.0456492,0 40,8.95422715 40,19.9999382 C40,30.049251 32.212339,49.0876656 20.0000618,63.3183385 C7.78778463,49.0875419 0.00012366863,30.049251 0.00012366863,19.9999382 C0.00012366863,8.95422715 8.95435082,0 19.9999382,0 Z M19.9999382,10.8461098 C14.9530214,10.8461098 10.8467282,14.9522794 10.8461098,19.9973411 C10.8467282,25.0443816 14.9530214,29.1505511 19.9999382,29.1505511 C25.046855,29.1505511 29.1533955,25.0445052 29.1537665,19.9993198 C29.1531481,14.9522794 25.046855,10.8461098 19.9999382,10.8461098 Z"/><path fill="#000" d="M9.14282181,15.5661704 C11.0887477,7.64333967 17.5065312,1.99465133 25.0508123,0.643818887 C23.4373077,0.223963889 21.7449025,0 19.9999382,0 C8.95435082,0 -3.51487386e-15,8.95422715 -3.51487386e-15,19.9999382 C-3.51487386e-15,29.1161712 6.40900308,45.6298907 16.7159177,59.2413548 C9.41279043,43.1798915 6.89514446,24.7178964 9.14282181,15.5661704 Z" opacity=".1"/></g></svg>