<svg xmlns="http://www.w3.org/2000/svg" width="120" height="38" viewBox="0 0 120 38"><g fill="#212121"><path d="M10.9176832,35.660075 C11.5828162,35.660075 12.3310909,35.3234781 13.1625071,34.6502844 C13.9939234,33.9770906 14.8918529,33.0658162 15.8562958,31.916461 C15.5902426,30.4387186 15.5237293,28.7967826 15.6567559,26.990653 C15.7897825,25.1845234 16.0475215,23.3455551 16.429973,21.4737481 C16.8124245,19.6019411 17.3029601,17.7711825 17.9015798,15.9814723 C18.5001995,14.191762 19.1487042,12.6072938 19.8470939,11.2280676 C21.2771298,8.4039377 22.7404224,6.29404996 24.2369717,4.89840437 C25.733521,3.50275879 27.013902,2.78851663 28.0781148,2.75567792 C29.1423276,2.7228392 29.8490315,3.35498455 30.1982263,4.65211398 C30.5474211,5.9492434 30.2730537,7.87851818 29.3751242,10.4399383 C28.9427877,11.6878097 28.3607964,13.1491327 27.62915,14.8239074 C26.8975037,16.4986821 26.0660875,18.2473439 25.1349013,20.0698929 C24.2037151,21.8924418 23.1977014,23.7067811 22.1168602,25.5129106 C21.0360191,27.3190402 19.9302355,28.9938149 18.7995094,30.5372348 C18.6997394,32.0806546 18.832766,33.3203162 19.1985892,34.2562198 C19.5644123,35.1921233 20.2794303,35.660075 21.3436431,35.660075 C22.2748293,35.660075 23.3057855,35.1510749 24.4365116,34.1330746 C25.5672377,33.1150742 26.6813355,31.7522674 27.778805,30.044654 C28.8762744,28.3370405 29.8989164,26.3667174 30.846731,24.1336844 C31.7945455,21.9006515 32.5428201,19.5855217 33.0915549,17.1882952 C33.6402896,14.7910687 33.9312853,12.3938421 33.9645419,9.9966156 C33.9977986,7.59938907 33.6652321,5.36635613 32.9668424,3.29751679 C33.2994089,2.96912959 33.7400596,2.71462952 34.2887943,2.53401656 C34.837529,2.3534036 35.4112062,2.32877456 36.0098259,2.46012944 C36.6084456,2.59148432 37.1821229,2.92808119 37.7308576,3.46992007 C38.2795923,4.01175894 38.6869863,4.82451725 38.9530395,5.908195 C39.385376,7.55013099 39.4435751,9.45477673 39.1276369,11.6221322 C38.8116987,13.7894877 38.2297074,16.0225207 37.3816628,18.321231 C36.5336182,20.6199414 35.4860337,22.8776034 34.2389093,25.094217 C32.9917849,27.3108305 31.6365764,29.3057828 30.1732838,31.0790736 C28.7099912,32.8523645 27.1968136,34.3054778 25.633751,35.4384137 C24.0706885,36.5713495 22.5741392,37.1870755 21.1441032,37.2855916 C19.8803505,37.3841078 18.8493943,37.1049787 18.0512347,36.4482043 C17.2530751,35.7914299 16.6544554,34.8719457 16.2553756,33.6897518 C15.2909328,34.7405909 14.3431182,35.5861879 13.411932,36.2265429 C12.4807458,36.866898 11.5828162,37.2199142 10.7181433,37.2855916 C9.52090391,37.3841078 8.48994775,37.1952852 7.62527484,36.7191237 C6.76060193,36.2429623 6.07884059,35.5615589 5.57999084,34.6749134 C5.08114108,33.788268 4.74857458,32.7456386 4.58229133,31.5470254 C4.41600808,30.3484121 4.40769391,29.0512827 4.55734884,27.6556371 C4.70700377,26.2599915 5.00631362,24.8232975 5.4552784,23.3455551 C5.90424318,21.8678128 6.51117705,20.4229091 7.27608001,19.0108441 C8.30703617,17.040521 9.24653654,15.1358752 10.0945811,13.2969069 C10.9426257,11.4579386 11.5412454,9.81600264 11.8904402,8.37109898 C12.2396351,6.92619531 12.2645776,5.76863044 11.9652677,4.89840437 C11.6659579,4.0281783 10.9176832,3.59306527 9.72044381,3.59306527 C8.8557709,3.59306527 8.10749627,3.83114598 7.47561991,4.30730742 C6.84374355,4.78346885 6.31995131,5.37456581 5.90424318,6.08059828 C5.48853505,6.78663075 5.1892252,7.55834067 5.00631362,8.39572802 C4.82340204,9.23311537 4.74857458,10.0048253 4.78183123,10.7108578 C4.81508788,11.4168902 4.97305697,12.0079872 5.2557385,12.4841486 C5.53842003,12.9603101 5.92918567,13.1983908 6.42803542,13.1983908 C6.46129207,13.6252941 6.29500882,14.1014556 5.92918567,14.6268751 C5.56336251,15.1522946 5.10608357,15.5627786 4.55734884,15.8583271 C4.00861411,16.1538755 3.4099944,16.2606014 2.76148972,16.1785046 C2.11298504,16.0964078 1.52267949,15.6777141 0.990573086,14.9224236 C0.45846668,14.1999717 0.142528502,13.3872134 0.0427585505,12.4841486 C-0.0570114007,11.5810838 0.0178160627,10.65339 0.267240941,9.70106712 C0.516665818,8.74874425 0.924059786,7.81284074 1.48942284,6.89335659 C2.0547859,5.97387244 2.76148972,5.15290445 3.6095343,4.43045262 C4.45757889,3.70800079 5.42202175,3.12511351 6.50286289,2.6817908 C7.58370402,2.23846808 8.77262928,2.01680672 10.0696386,2.01680672 C11.9985244,2.01680672 13.3786754,2.60790368 14.2100916,3.79009758 C15.0415079,4.97229149 15.4821585,6.46645324 15.5320435,8.27258282 C15.5819284,10.0787124 15.2992469,12.0572453 14.6839989,14.2081814 C14.0687508,16.3591175 13.2622771,18.4197472 12.2645776,20.3900704 C11.3999047,22.0648451 10.6266875,23.8052972 9.9449262,25.6114268 C9.26316487,27.4175564 8.79757176,29.0594924 8.54814689,30.5372348 C8.29872201,32.0149771 8.34029282,33.2382194 8.67285932,34.2069617 C9.00542583,35.1757039 9.75370046,35.660075 10.9176832,35.660075 Z M27.9284599,9.7503252 C28.4273097,8.30542154 28.6850487,7.18890507 28.701677,6.4007758 C28.7183053,5.61264653 28.5769646,5.20216253 28.2776547,5.16932381 C27.9783449,5.13648509 27.5460084,5.48950133 26.9806454,6.22837252 C26.4152823,6.96724371 25.7834059,8.12480858 25.0850163,9.70106712 C24.6526798,10.6862287 24.1621442,11.8602129 23.6134095,13.2230198 C23.0646748,14.5858267 22.51594,16.0471497 21.9672053,17.6069889 C21.4184706,19.1668281 20.9113067,20.7677157 20.4457136,22.4096516 C19.9801205,24.0515876 19.597669,25.6114268 19.2983591,27.0891692 C20.1962887,25.6771042 21.0859041,24.1829425 21.9672053,22.606684 C22.8485066,21.0304254 23.6632945,19.4705862 24.4115691,17.9271664 C25.1598438,16.3837466 25.8416051,14.9060042 26.4568531,13.4939392 C27.0721011,12.0818743 27.5626367,10.834003 27.9284599,9.7503252 Z M49.4929485,26.5188272 C50.0817537,25.1375735 50.5233577,24.4553689 50.8177603,24.4722135 C51.1121629,24.489058 50.997673,25.1712626 50.4742906,26.5188272 C50.3107336,26.8894074 50.0735759,27.4284333 49.7628175,28.1359047 C49.4520592,28.8433761 49.0677002,29.626648 48.6097406,30.4857204 C48.1517809,31.3447928 47.6283985,32.2038652 47.0395932,33.0629376 C46.4507879,33.92201 45.8210934,34.6884374 45.1505096,35.3622197 C44.4799259,36.036002 43.7684528,36.5581832 43.0160905,36.9287635 C42.2637283,37.2993437 41.4950103,37.4004111 40.7099366,37.2319655 C39.7285945,37.0635199 38.9762322,36.6171392 38.4528497,35.8928232 C37.9294673,35.1685073 37.5859975,34.2673235 37.4224405,33.1892718 C37.2588835,32.1112201 37.2752392,30.8815675 37.4715076,29.5003138 C37.667776,28.1190601 38.0030679,26.6704282 38.4773833,25.154418 C38.9516986,23.6384079 39.5486818,22.0887086 40.2683326,20.5053203 C40.9879835,18.9219319 41.8057686,17.3722326 42.7216879,15.8562225 C43.212359,15.0139946 43.7848085,14.6181475 44.4390366,14.6686812 C45.0932647,14.7192149 45.6657142,14.9971501 46.1563853,15.5024868 C46.6470563,16.0078235 46.9905261,16.6310721 47.1867945,17.3722326 C47.3830629,18.1133932 47.2849287,18.7703309 46.8923919,19.3430458 C46.4017208,20.0505172 45.8783384,20.9095896 45.3222445,21.9202631 C44.7661506,22.9309365 44.2427682,23.9837213 43.7520971,25.0786175 C43.2614261,26.1735137 42.8116443,27.26841 42.4027517,28.3633062 C41.9938592,29.4582024 41.6831008,30.4604535 41.4704767,31.3700596 C41.2578526,32.2796657 41.1678962,33.0460931 41.2006076,33.6693417 C41.233319,34.2925903 41.4295875,34.6715928 41.7894129,34.8063493 C42.3455068,35.008484 42.9833791,34.8737275 43.70303,34.4020799 C44.4226809,33.9304323 45.1423318,33.2650723 45.8619827,32.4059999 C46.5816335,31.5469275 47.2603952,30.5867877 47.8982675,29.5255806 C48.5361399,28.4643735 49.0677002,27.4621224 49.4929485,26.5188272 Z M52.4369748,8.32670545 C52.4369748,9.27000065 52.1180386,10.0616948 51.4801662,10.701788 C50.8422939,11.3418812 50.0817537,11.6619278 49.1985458,11.6619278 C48.3153379,11.6619278 47.5547978,11.3418812 46.9169254,10.701788 C46.2790531,10.0616948 45.9601169,9.27000065 45.9601169,8.32670545 C45.9601169,7.41709936 46.2790531,6.64224974 46.9169254,6.00215656 C47.5547978,5.36206339 48.3153379,5.04201681 49.1985458,5.04201681 C50.0817537,5.04201681 50.8422939,5.36206339 51.4801662,6.00215656 C52.1180386,6.64224974 52.4369748,7.41709936 52.4369748,8.32670545 Z"/><path d="M60.0973533,18.3876392 C59.2877151,19.7357794 58.8424141,20.9606141 58.7614502,22.0621433 C58.6804864,23.1636725 58.7533539,24.2240999 58.9800526,25.2434254 C59.2067513,26.2627509 59.4820283,27.2902968 59.8058835,28.3260631 C60.1297388,29.3618293 60.2754737,30.4880196 60.2430882,31.704634 C60.2430882,31.9676857 60.2268954,32.2060764 60.1945099,32.4198059 C60.1621244,32.6335355 60.1135461,32.8390446 60.048775,33.0363334 C60.9879553,32.2471782 61.8056899,31.3264971 62.5019788,30.2742901 C63.1982677,29.2220831 63.8216891,28.0712317 64.3722431,26.8217359 C64.5017852,26.4929212 64.6637128,26.2298694 64.858026,26.0325806 C65.0523392,25.8352918 65.2061704,25.7366474 65.3195198,25.7366474 C65.4328691,25.7366474 65.5057366,25.8270715 65.5381221,26.0079195 C65.5705076,26.1887676 65.5057366,26.4600397 65.3438089,26.8217359 C64.9875681,27.6766541 64.5584599,28.5726741 64.0564842,29.5097959 C63.5545085,30.4469178 62.9796653,31.3511582 62.3319548,32.2225171 C61.6842442,33.093876 60.9474734,33.899472 60.1216424,34.639305 C59.2958115,35.3791381 58.3647275,35.9956656 57.3283906,36.4888877 C56.7130656,36.8177023 56.065355,37.0478726 55.3852589,37.1793985 C54.7051628,37.3109244 54.0331631,37.3438058 53.3692597,37.2780429 C52.7053564,37.21228 52.0738386,37.0314319 51.4747063,36.7354987 C50.875574,36.4395655 50.3816947,36.0449878 49.9930684,35.5517658 C49.1834302,34.4995588 48.6733581,33.2418426 48.4628522,31.7786173 C48.2523462,30.3153919 48.6004906,28.6302167 49.5072854,26.7230915 C49.9930684,25.6708845 50.5517187,24.5611349 51.1832366,23.3938428 C51.8147544,22.2265506 52.5029468,21.0674789 53.247814,19.9166275 C54.1869943,18.4698428 55.2071385,17.3436525 56.3082465,16.5380566 C57.4093544,15.7324606 58.3647275,15.27212 59.1743657,15.1570349 C59.984004,15.0419497 60.5183652,15.2474589 60.7774494,15.7735624 C61.0365336,16.2996659 60.8098349,17.1710248 60.0973533,18.3876392 Z M55.9681984,34.0227775 C56.3568247,33.1020964 56.4215958,32.0498894 56.1625116,30.8661565 C55.9034273,29.6824236 55.5633793,28.4904704 55.1423674,27.2902968 C54.7213556,26.0901232 54.3732111,24.9146107 54.0979341,23.7637593 C53.8226571,22.6129079 53.863139,21.5935824 54.2193799,20.7057827 C53.798368,21.494938 53.3044887,22.3580765 52.7377419,23.2951984 C52.1709952,24.2323202 51.6447303,25.2023235 51.1589474,26.2052083 C50.6731645,27.2080931 50.3088273,28.235639 50.0659358,29.287846 C49.8230444,30.340053 49.7987552,31.3593785 49.9930684,32.3458226 C50.154996,33.2336223 50.5031405,33.9487942 51.0375017,34.4913384 C51.5718629,35.0338827 52.1548024,35.3873585 52.7863202,35.5517658 C53.417838,35.7161731 54.0331631,35.6750713 54.6322954,35.4284603 C55.2314276,35.1818493 55.6767286,34.7132883 55.9681984,34.0227775 Z"/><path d="M55.6148779,7.67222663 C57.7460573,7.90507835 60.0329768,8.11298168 62.4756364,8.2959366 C64.9182959,8.47889152 67.3691523,8.63689805 69.8282055,8.76995618 C70.9101889,6.60776162 72.0249597,4.8613737 73.1725179,3.53079244 C74.3200761,2.20021117 75.3938626,1.25217201 76.3938776,0.686674976 C77.3938926,0.121177937 78.2709549,-0.0950415191 79.0250646,0.0380166076 C79.7791742,0.171074734 80.3037723,0.611829779 80.5988586,1.36028174 C80.893945,2.10873371 80.9103387,3.13161806 80.6480397,4.42893479 C80.3857407,5.72625153 79.7463869,7.23978772 78.7299782,8.96954337 L78.582435,9.21902735 C80.6152523,9.28555642 82.3529833,9.33545322 83.7956278,9.36871775 C85.2382724,9.40198228 86.2055,9.41861455 86.6973106,9.41861455 C87.3202708,9.41861455 87.8120814,9.48514361 88.1727426,9.61820174 C88.5334037,9.75125986 88.7219311,9.90095025 88.7383248,10.0672729 C88.7547185,10.2335956 88.5989785,10.383286 88.2711047,10.5163441 C87.9432309,10.6494022 87.4186329,10.7325635 86.6973106,10.7658281 L77.4512705,11.0652089 C76.7299482,12.2294675 76.008626,13.3521454 75.2873037,14.4332427 C74.5659814,15.51434 73.8856433,16.5205921 73.2462895,17.4519989 C72.6069357,18.3834058 72.0249597,19.206703 71.5003617,19.9218904 C70.9757637,20.6370779 70.5495278,21.210891 70.221654,21.6433299 C69.7298434,23.4063501 69.3445917,25.0695767 69.065899,26.6330097 C68.7872063,28.1964427 68.64786,29.5686046 68.64786,30.7494955 C68.64786,31.9303864 68.7954032,32.8784255 69.0904895,33.593613 C69.3855759,34.3088004 69.8609929,34.7162909 70.5167404,34.8160845 C71.2380627,34.9158781 72.008566,34.6663941 72.8282504,34.0676325 C73.6479349,33.468871 74.426635,32.7287351 75.164351,31.847225 C75.902067,30.9657149 76.5742082,30.0343081 77.1807747,29.0530044 C77.7873411,28.0717007 78.2381675,27.2317713 78.5332539,26.5332161 C78.6644034,26.2005708 78.8283403,25.9344545 79.0250646,25.7348673 C79.2217888,25.5352802 79.3775289,25.4271704 79.4922847,25.4105382 C79.6070405,25.3939059 79.6808121,25.4770672 79.7135995,25.6600221 C79.7463869,25.8429771 79.6808121,26.1340417 79.5168752,26.5332161 C79.2217888,27.2650358 78.7709624,28.2380234 78.1643959,29.4521788 C77.5578295,30.6663342 76.8365072,31.8555412 76.0004291,33.0197998 C75.164351,34.1840584 74.2217139,35.1903105 73.1725179,36.038556 C72.1233219,36.8868016 70.9921574,37.3109244 69.7790244,37.3109244 C68.2380178,37.3109244 67.0658691,36.6290015 66.2625783,35.2651557 C65.4592876,33.9013099 64.9920675,32.0883929 64.860918,29.8264047 C64.7297685,27.5644166 64.9346896,24.9697831 65.4756813,22.0425043 C66.016673,19.1152255 66.8773416,16.0715209 68.0576872,12.9113904 L68.64786,11.4144864 L59.1067334,11.763764 C57.762451,11.8302931 56.6312865,11.6223898 55.71324,11.1400541 C54.7951935,10.6577184 54.1476428,10.1421181 53.7705879,9.59325334 C53.3935331,9.04438856 53.344352,8.55373672 53.6230447,8.12129781 C53.9017374,7.6888589 54.5656818,7.5391685 55.6148779,7.67222663 Z M77.3037273,8.320885 C78.1234117,6.89051014 78.5906318,5.82604512 78.7053877,5.12748996 C78.8201435,4.42893479 78.7053877,4.10460561 78.3611202,4.1545024 C78.0168528,4.2043992 77.5168453,4.63683811 76.8610977,5.45181914 C76.2053502,6.26680017 75.5168153,7.45600718 74.795493,9.01944016 C75.1561542,9.0527047 75.5004216,9.0776531 75.8282954,9.09428536 C76.1561691,9.11091763 76.5004366,9.11923376 76.8610977,9.11923376 L77.3037273,8.320885 Z M73.8610528,11.2148993 C73.3036674,12.6120096 72.8282504,13.8677457 72.4348019,14.9821075 C72.0413534,16.0964693 71.7298733,16.9862955 71.5003617,17.6515861 C72.1561092,16.6869147 72.8446441,15.6557142 73.5659664,14.5579847 C74.2872887,13.4602551 74.9922173,12.3292611 75.6807522,11.1650025 C75.3856658,11.1650025 75.0905794,11.1650025 74.795493,11.1650025 C74.5004066,11.1650025 74.1889266,11.1816347 73.8610528,11.2148993 Z"/><path d="M90.7325347,27.9399086 C89.7693687,28.4980711 88.8228091,28.8181937 87.8928557,28.9002764 C86.9629023,28.9823591 86.091071,28.9166929 85.2773618,28.7032779 C84.4636526,28.4898628 83.7246718,28.1779485 83.0604194,27.7675349 C82.396167,27.3571213 81.8647651,26.9220829 81.4662136,26.4624197 C81.3997884,27.31608 81.433001,28.1369071 81.5658515,28.9249012 C81.698702,29.7128953 81.9477966,30.4188066 82.3131355,31.0426353 C82.6784743,31.6664639 83.1600573,32.1753768 83.7578844,32.5693738 C84.3557116,32.9633709 85.0863893,33.209619 85.9499174,33.3081183 C87.3448475,33.4394506 88.5986239,33.3409513 89.7112467,33.0126205 C90.8238694,32.6842896 91.8119449,32.2082099 92.675473,31.5843812 C93.5390012,30.9605526 94.2945883,30.2218081 94.9422344,29.3681479 C95.5898805,28.5144876 96.1461919,27.6115778 96.6111686,26.6594182 C96.7772317,26.3310874 96.9515979,26.0684227 97.1342673,25.8714242 C97.3169367,25.6744257 97.4663935,25.5677181 97.5826377,25.5513016 C97.6988819,25.534885 97.7736103,25.6169678 97.8068229,25.7975497 C97.8400355,25.9781317 97.7736103,26.2654212 97.6075472,26.6594182 C96.8768695,28.4980711 95.9884319,30.0986841 94.9422344,31.4612571 C93.8960368,32.8238302 92.7751109,33.9483634 91.5794566,34.8348568 C90.3838022,35.7213501 89.1549353,36.3698036 87.8928557,36.7802172 C86.6307761,37.1906307 85.4268186,37.3630044 84.2809832,37.2973383 C83.1351478,37.2316721 82.072344,36.9443826 81.0925717,36.4354697 C80.1127994,35.9265569 79.3073933,35.1796042 78.6763535,34.1946116 C78.0453137,33.2424521 77.7048844,32.1015023 77.6550654,30.7717623 C77.6052465,29.4420223 77.7879159,28.0630327 78.2030737,26.6347934 C78.6182314,25.2065542 79.2243618,23.7865232 80.0214646,22.3747005 C80.8185675,20.9628777 81.7402178,19.7152205 82.7864153,18.6317286 C83.8326128,17.5482368 84.9618419,16.67816 86.1741026,16.0214982 C87.3863632,15.3648365 88.6401397,15.0693387 89.9354318,15.1350049 C91.230724,15.2006711 92.2520121,15.4961688 92.9992961,16.0214982 C93.74658,16.5468276 94.277982,17.2034893 94.5935019,17.9914834 C94.9090218,18.7794775 95.0335691,19.6577626 94.9671438,20.6263386 C94.9007186,21.5949147 94.6765334,22.5388659 94.2945883,23.4581923 C93.9126431,24.3775187 93.4144538,25.2393873 92.8000204,26.0437979 C92.1855869,26.8482085 91.496425,27.4802454 90.7325347,27.9399086 Z M88.8892343,17.7944849 C87.9924936,17.6631526 87.1538749,17.7780684 86.3733783,18.1392323 C85.5928817,18.5003963 84.8871135,19.0257256 84.2560738,19.7152205 C83.625034,20.4047153 83.093632,21.2173342 82.661868,22.1530771 C82.2301039,23.0888201 81.914584,24.0656044 81.7153083,25.0834301 C82.0142219,25.3789279 82.4708954,25.6580091 83.0853289,25.9206738 C83.6997624,26.1833385 84.5549873,26.2325881 85.6510038,26.0684227 C86.248831,26.0027565 86.8300518,25.7565084 87.3946664,25.3296782 C87.9592809,24.9028481 88.4574702,24.4021436 88.8892343,23.8275645 C89.3209984,23.2529855 89.678034,22.6373652 89.9603413,21.9807034 C90.2426486,21.3240417 90.4087117,20.7002131 90.4585306,20.1092175 C90.5083496,19.5182219 90.4087117,19.0093091 90.159617,18.582479 C89.9105224,18.1556489 89.4870615,17.8929842 88.8892343,17.7944849 Z"/><path d="M104.231099,16.6674365 C103.965125,17.7788832 103.632658,19.0456056 103.233698,20.4676035 C102.834738,21.8896015 102.402531,23.3524615 101.937078,24.8561835 C103.167205,22.7967381 104.463826,20.9497753 105.826939,19.3152948 C106.92408,18.0077105 108.046155,17.0106774 109.193166,16.3241956 C110.340177,15.6377139 111.395759,15.2454386 112.359912,15.1473697 C113.324066,15.0493009 114.130298,15.2209213 114.778609,15.6622311 C115.426919,16.1035408 115.800944,16.798195 115.900684,17.7461936 C116.000424,18.5307442 115.884061,19.4869153 115.551594,20.6147068 C115.219127,21.7424983 114.795232,22.9193242 114.279908,24.1451845 C113.764585,25.3710448 113.224326,26.5969051 112.659133,27.8227655 C112.093939,29.0486258 111.611862,30.1600725 111.212902,31.1571055 C110.813942,32.1541386 110.572903,32.9877236 110.489787,33.6578606 C110.40667,34.3279976 110.581215,34.7284453 111.013422,34.8592037 C111.478875,34.9899622 112.027446,34.8592037 112.659133,34.4669284 C113.29082,34.0746531 113.955753,33.502585 114.653934,32.750724 C115.352114,31.998863 116.041983,31.0998987 116.723539,30.0538313 C117.405096,29.0077638 118.011848,27.8963171 118.543795,26.7194912 C118.809769,26.0983886 119.059119,25.6407341 119.291846,25.3465276 C119.524572,25.0523211 119.707429,24.9052179 119.840416,24.9052179 C119.973403,24.9052179 120.023273,25.0523211 119.990026,25.3465276 C119.956779,25.6407341 119.807169,26.0983886 119.541196,26.7194912 C119.275222,27.3732834 118.843015,28.2885924 118.244575,29.4654183 C117.646135,30.6422442 116.92302,31.8108977 116.075229,32.9713788 C115.227439,34.1318599 114.263285,35.1452378 113.182768,36.0115124 C112.102251,36.8777871 110.963552,37.3109244 109.766671,37.3109244 C108.902258,37.3109244 108.212389,37.0494075 107.697065,36.5263738 C107.181742,36.00334 106.832652,35.2759962 106.649795,34.3443424 C106.466938,33.4126885 106.466938,32.3094143 106.649795,31.0345195 C106.832652,29.7596248 107.17343,28.3539716 107.67213,26.81756 C107.87161,26.2618367 108.096026,25.6570789 108.345376,25.0032867 C108.594726,24.3494946 108.835764,23.7202196 109.068491,23.1154618 C109.301218,22.5107041 109.517321,21.9631531 109.716801,21.472809 C109.916281,20.9824649 110.049268,20.6228792 110.115761,20.3940519 C109.484074,20.3940519 108.669531,20.7863272 107.67213,21.5708778 C106.67473,22.3554284 105.627459,23.4096683 104.530319,24.7335975 C103.433178,26.0575266 102.377596,27.569421 101.363572,29.2692807 C100.349549,30.9691403 99.4934466,32.7180344 98.7952662,34.5159628 L98.5459161,35.2024446 C98.1802026,36.2158225 97.7230607,36.836925 97.1744905,37.0657523 C96.6259202,37.2945796 96.1438433,37.1883383 95.7282598,36.7470286 C95.3126763,36.3057189 95.0217678,35.5456855 94.8555344,34.4669284 C94.689301,33.3881713 94.8389111,32.0152078 95.3043646,30.3480377 C95.470598,29.7596248 95.7448832,28.9669018 96.12722,27.9698687 C96.5095568,26.9728356 96.9583871,25.8532166 97.4737106,24.6110114 C97.9890342,23.3688063 98.5292928,22.0367047 99.0944864,20.6147068 C99.65968,19.1927088 100.191627,17.7298488 100.690327,16.2261268 C100.923054,15.5723346 101.272144,15.0574733 101.737598,14.6815428 C102.203051,14.3056123 102.651881,14.1176471 103.084088,14.1176471 C103.516295,14.1176471 103.865385,14.3137847 104.131359,14.70606 C104.397332,15.0983353 104.430579,15.7521275 104.231099,16.6674365 Z"/></g></svg>