<svg xmlns="http://www.w3.org/2000/svg" viewBox="0 0 738.15 105.98"><defs><style>.cls-1{fill:#231815;}</style></defs><g id="Layer_2" data-name="Layer 2"><g id="레이어_9" data-name="레이어 9"><path class="cls-1" d="M142.29,84a1.83,1.83,0,0,1-1.36-.56,1.85,1.85,0,0,1-.56-1.36V30a2,2,0,0,1,.56-1.44,1.83,1.83,0,0,1,1.36-.56h35.19a1.91,1.91,0,0,1,1.44.56,2,2,0,0,1,.56,1.44v5.28a1.84,1.84,0,0,1-.56,1.35,1.91,1.91,0,0,1-1.44.56H151.17V51.32h24.55a2,2,0,0,1,1.44.52,1.83,1.83,0,0,1,.56,1.4v5a1.83,1.83,0,0,1-.56,1.4,2,2,0,0,1-1.44.52H151.17V74.75h27a2,2,0,0,1,1.44.56,2,2,0,0,1,.56,1.45V82a1.85,1.85,0,0,1-.56,1.36,1.91,1.91,0,0,1-1.44.56Z"/><path class="cls-1" d="M211.15,84.75a30.81,30.81,0,0,1-12.43-2.2,18.1,18.1,0,0,1-7.6-5.75,13.46,13.46,0,0,1-2.76-7.48A1.64,1.64,0,0,1,190,67.64h7.12a2.34,2.34,0,0,1,1.56.44,4.42,4.42,0,0,1,.91,1.08,8.16,8.16,0,0,0,1.85,3,9.91,9.91,0,0,0,3.71,2.44,15.74,15.74,0,0,0,6,1c3.84,0,6.71-.65,8.6-1.92a6,6,0,0,0,2.84-5.2,4.82,4.82,0,0,0-1.52-3.72,14.1,14.1,0,0,0-4.68-2.56A81.3,81.3,0,0,0,208,59.72a46.41,46.41,0,0,1-10-3.48,15.2,15.2,0,0,1-6.08-5.16,14.2,14.2,0,0,1-2-7.92,14,14,0,0,1,2.52-8.23,16.78,16.78,0,0,1,7.2-5.68,27.23,27.23,0,0,1,11.15-2.08,27.62,27.62,0,0,1,9.2,1.4,20.2,20.2,0,0,1,6.64,3.68,17.24,17.24,0,0,1,4,4.87,11.51,11.51,0,0,1,1.48,5.08,1.75,1.75,0,0,1-.44,1.16,1.53,1.53,0,0,1-1.24.52H223a2.76,2.76,0,0,1-1.28-.32,2.37,2.37,0,0,1-1-1.2,6.66,6.66,0,0,0-3.12-4.24,12,12,0,0,0-6.8-1.76A13.32,13.32,0,0,0,203.8,38a5.39,5.39,0,0,0-2.64,5,5.37,5.37,0,0,0,1.31,3.72,10.86,10.86,0,0,0,4.24,2.6,78.09,78.09,0,0,0,7.72,2.4,56.12,56.12,0,0,1,11.12,3.52,14.58,14.58,0,0,1,6.32,5.08,14.07,14.07,0,0,1,2,7.8A14.37,14.37,0,0,1,231,77a18,18,0,0,1-8,5.72A32.68,32.68,0,0,1,211.15,84.75Z"/><path class="cls-1" d="M264.1,84.75a30.89,30.89,0,0,1-12.44-2.2,18.13,18.13,0,0,1-7.59-5.75,13.38,13.38,0,0,1-2.76-7.48A1.64,1.64,0,0,1,243,67.64h7.11a2.31,2.31,0,0,1,1.56.44,4.24,4.24,0,0,1,.92,1.08,8.13,8.13,0,0,0,1.84,3,10,10,0,0,0,3.72,2.44,15.74,15.74,0,0,0,6,1c3.84,0,6.7-.65,8.6-1.92a6,6,0,0,0,2.84-5.2A4.82,4.82,0,0,0,274,64.72a14.1,14.1,0,0,0-4.68-2.56A82.07,82.07,0,0,0,261,59.72a46.51,46.51,0,0,1-10-3.48,15.26,15.26,0,0,1-6.08-5.16,14.28,14.28,0,0,1-2-7.92,14,14,0,0,1,2.52-8.23,16.75,16.75,0,0,1,7.19-5.68,27.28,27.28,0,0,1,11.16-2.08,27.62,27.62,0,0,1,9.2,1.4,20.3,20.3,0,0,1,6.64,3.68,17.2,17.2,0,0,1,4,4.87,11.53,11.53,0,0,1,1.49,5.08,1.71,1.71,0,0,1-.45,1.16,1.5,1.5,0,0,1-1.23.52h-7.44a2.76,2.76,0,0,1-1.28-.32,2.33,2.33,0,0,1-1-1.2,6.66,6.66,0,0,0-3.12-4.24,12.07,12.07,0,0,0-6.8-1.76,13.38,13.38,0,0,0-7,1.6,5.39,5.39,0,0,0-2.64,5,5.38,5.38,0,0,0,1.32,3.72,10.86,10.86,0,0,0,4.24,2.6,78.09,78.09,0,0,0,7.72,2.4,56.12,56.12,0,0,1,11.12,3.52,14.49,14.49,0,0,1,6.31,5.08,14,14,0,0,1,2,7.8A14.37,14.37,0,0,1,284,77a18,18,0,0,1-8,5.72A32.71,32.71,0,0,1,264.1,84.75Z"/><path class="cls-1" d="M299.53,84A1.91,1.91,0,0,1,297.61,82V30a2,2,0,0,1,.56-1.44,1.84,1.84,0,0,1,1.36-.56h35.19a1.93,1.93,0,0,1,2,2v5.28a1.81,1.81,0,0,1-.57,1.35,1.91,1.91,0,0,1-1.44.56H308.41V51.32H333a2,2,0,0,1,1.44.52,1.8,1.8,0,0,1,.57,1.4v5a1.8,1.8,0,0,1-.57,1.4,2,2,0,0,1-1.44.52H308.41V74.75h27a1.92,1.92,0,0,1,2,2V82a1.81,1.81,0,0,1-.56,1.36,1.91,1.91,0,0,1-1.43.56Z"/><path class="cls-1" d="M350.88,84a1.83,1.83,0,0,1-1.36-.56A1.85,1.85,0,0,1,349,82V30a2,2,0,0,1,.56-1.44,1.83,1.83,0,0,1,1.36-.56H357a2.24,2.24,0,0,1,1.64.52,6.46,6.46,0,0,1,.68.76l23,35.83V30a2.05,2.05,0,0,1,.52-1.44,1.8,1.8,0,0,1,1.4-.56H391a1.91,1.91,0,0,1,1.44.56A2,2,0,0,1,393,30V82a2,2,0,0,1-.56,1.44,1.83,1.83,0,0,1-1.36.56h-6.24a2,2,0,0,1-1.6-.56,4.67,4.67,0,0,0-.72-.72l-22.95-35V82a1.85,1.85,0,0,1-.56,1.36,1.93,1.93,0,0,1-1.44.56Z"/><path class="cls-1" d="M421.34,84A1.91,1.91,0,0,1,419.42,82V37.8H404.63a1.91,1.91,0,0,1-1.92-1.92V30a1.91,1.91,0,0,1,.56-1.44,1.81,1.81,0,0,1,1.36-.56h40.79a1.92,1.92,0,0,1,2,2v5.91a1.85,1.85,0,0,1-.56,1.36,1.94,1.94,0,0,1-1.44.56H430.7V82a1.85,1.85,0,0,1-.56,1.36,1.91,1.91,0,0,1-1.44.56Z"/><path class="cls-1" d="M459,84A1.91,1.91,0,0,1,457.09,82V29.89A1.91,1.91,0,0,1,459,28h7.52a1.8,1.8,0,0,1,1.4.56,1.9,1.9,0,0,1,.52,1.36V82a1.9,1.9,0,0,1-.52,1.36,1.8,1.8,0,0,1-1.4.56Z"/><path class="cls-1" d="M479.17,84a1.65,1.65,0,0,1-1.16-.48,1.55,1.55,0,0,1-.52-1.2,1.93,1.93,0,0,1,.16-.72L496.92,30a2.94,2.94,0,0,1,.93-1.4,2.73,2.73,0,0,1,1.87-.6h8.72a2.6,2.6,0,0,1,1.84.6,3.73,3.73,0,0,1,1,1.4l19.28,51.58a4.05,4.05,0,0,1,.08.72,1.63,1.63,0,0,1-.48,1.2A1.55,1.55,0,0,1,529,84h-7a2.21,2.21,0,0,1-1.64-.52,2.51,2.51,0,0,1-.68-1L516,72.67H492.21l-3.76,9.76a2.74,2.74,0,0,1-.68,1,2.24,2.24,0,0,1-1.64.52ZM495,63.48h18.16L504,38.77Z"/><path class="cls-1" d="M541.55,84a1.83,1.83,0,0,1-1.36-.56,1.85,1.85,0,0,1-.56-1.36V29.89a1.85,1.85,0,0,1,.56-1.36,1.83,1.83,0,0,1,1.36-.56H549a1.83,1.83,0,0,1,1.36.56,1.85,1.85,0,0,1,.56,1.36V74.43h25.35a1.93,1.93,0,0,1,2,2V82a1.81,1.81,0,0,1-.56,1.36,1.91,1.91,0,0,1-1.44.56Z"/><path class="cls-1" d="M589.54,84a1.81,1.81,0,0,1-1.36-.56,1.85,1.85,0,0,1-.56-1.36V29.89a1.85,1.85,0,0,1,.56-1.36,1.81,1.81,0,0,1,1.36-.56H597a1.91,1.91,0,0,1,1.92,1.92V74.43h25.35a1.92,1.92,0,0,1,1.44.57,2,2,0,0,1,.56,1.44V82a1.85,1.85,0,0,1-.56,1.36,1.91,1.91,0,0,1-1.44.56Z"/><path class="cls-1" d="M656.72,84.75a28.55,28.55,0,0,1-12.08-2.36,17.19,17.19,0,0,1-7.92-7.28q-2.79-4.9-2.79-12.59V30a1.91,1.91,0,0,1,.56-1.44,1.8,1.8,0,0,1,1.35-.56h7.29a1.81,1.81,0,0,1,1.4.56A2,2,0,0,1,645,30V62.52q0,6.56,3.12,9.72c2.08,2.1,4.93,3.16,8.56,3.16s6.46-1.06,8.52-3.16,3.08-5.35,3.08-9.72V30a1.92,1.92,0,0,1,2-2h7.2a1.81,1.81,0,0,1,1.4.56,2.05,2.05,0,0,1,.52,1.44V62.52q0,7.68-2.77,12.59a16.94,16.94,0,0,1-7.83,7.28A28.49,28.49,0,0,1,656.72,84.75Z"/><path class="cls-1" d="M689.68,84A1.64,1.64,0,0,1,688,82.27a1.34,1.34,0,0,1,.08-.48c0-.16.1-.32.16-.48L706.15,55.4,689.36,30.6a2.06,2.06,0,0,1-.24-1A1.64,1.64,0,0,1,690.8,28H699a2.27,2.27,0,0,1,1.52.48,5.46,5.46,0,0,1,.95,1l11.76,17.27L725,29.49a3.56,3.56,0,0,1,.92-1,2.42,2.42,0,0,1,1.56-.48h7.76A1.64,1.64,0,0,1,737,29.65a1.69,1.69,0,0,1-.32,1L719.91,55.4l17.92,25.91a2.1,2.1,0,0,1,.23.48,1.36,1.36,0,0,1,.09.48,1.59,1.59,0,0,1-.52,1.2,1.69,1.69,0,0,1-1.16.48H728a2.25,2.25,0,0,1-1.52-.48,4.8,4.8,0,0,1-.88-1l-12.8-18.07L700.23,82.51a4.52,4.52,0,0,1-.88,1,2.37,2.37,0,0,1-1.6.48Z"/><path class="cls-1" d="M35.75,7C58.7,4.49,89.42,40.5,89.42,40.5l9.65-8.15S93.59,25,73.14,10.93,35.75,7,35.75,7Z"/><path class="cls-1" d="M51.51,93.41c-2.28,2.76-10.95,8.18-10.95,8.18a60,60,0,0,0,24.57-1.5C60.22,99.07,51.51,93.41,51.51,93.41Z"/><path class="cls-1" d="M42.42,56.39S64.75,69.3,97,59.91l.4-10.66S62.55,57.15,42.42,56.39Z"/><path class="cls-1" d="M90,3.84c-11.24-3.88-24.37.4-24.37.4a58.14,58.14,0,0,1,11.88,6.45C79.44,9,90,3.84,90,3.84Z"/><path class="cls-1" d="M79.16,93.31C52.29,81.65,29.49,58.24,29.49,58.24S24,64.25,24,69.07c0,0,28.18,26.34,49.53,31.77a29.81,29.81,0,0,0,13,.38h0c.87-.17,1.73-.37,2.56-.6a74.28,74.28,0,0,0,8.82-2.91l-2.42-.23A76.75,76.75,0,0,1,79.16,93.31Z"/><path class="cls-1" d="M76.61,86.16,65.67,79.88c-.91-.57-1.78-1.13-2.63-1.68A193.19,193.19,0,0,1,35.83,56.12a4,4,0,0,1,.2-.42c1.5-2.8,4.14-5,6.28-7.48,7.45-8.38,16.51-17,24.55-25.09C59.43,29,52.27,35.05,45.54,41.5h0S33.38,53.12,32.1,56.25c0,0,1.4,1.51,3.55,3.66v0A151.48,151.48,0,0,0,47.54,70.4S67.16,86.34,85.72,92.17c13.16,4.23,17.94.51,17.94.51C96.7,94.85,86.3,91.15,76.61,86.16Z"/><polygon class="cls-1" points="81.81 89.52 99.76 76.07 86.41 69.95 69.98 83 81.81 89.52"/><path class="cls-1" d="M19.27,74.7a28.57,28.57,0,0,1,1.41-6.41A24.68,24.68,0,0,0,19.27,74.7Z"/><path class="cls-1" d="M40,103.92c-11.73-1.51-20.84-12.65-20.84-26.17,0-1,.05-2,.15-3a24.68,24.68,0,0,1,1.41-6.41c.31-.9.66-1.77,1.05-2.62,9.45-21.14,42.43-44.6,42.43-44.6-4.46-3.8-11.74-7.23-11.74-7.23A258.6,258.6,0,0,0,21.84,39.5C10-2.41,51.88,1.66,51.88,1.66S20.45-6.12,6.75,12C-6.18,29.14,11,45.53,13.87,48.08c-.56.66-.48.55-1,1.21C8.07,45.78,2.52,34.58,2.52,34.58A36.13,36.13,0,0,0,10.31,52.8c-4.78,6.43-9,13.59-9.83,19.58A29.08,29.08,0,0,0,2,88.23c3.13,8.66,12.49,19.42,40,17.53,0,0,15-.62,22-4.23C63.93,101.53,51.68,106.29,40,103.92Z"/><path class="cls-1" d="M21.73,65.67c-.39.85-.74,1.72-1.05,2.62C21,67.42,21.34,66.55,21.73,65.67Z"/></g></g></svg>